<svg id="Layer_1" data-name="Layer 1" xmlns="http://www.w3.org/2000/svg" viewBox="0 0 54.52 23.55"><defs><style>.cls-1,.cls-2{fill:#231f20;}.cls-2{font-size:7.56px;font-family:AntiqueOliCom-RegIta, Antique Olive Compact;font-style:italic;}.cls-3{letter-spacing:0em;}.cls-4{letter-spacing:0.02em;}.cls-5{letter-spacing:-0.04em;}.cls-6{letter-spacing:0.01em;}.cls-7{letter-spacing:-0.04em;}.cls-8{letter-spacing:0.02em;}.cls-9{letter-spacing:0em;}</style></defs><path class="cls-1" d="M313.53,244l-1,4.57h6.24l1-4.57Zm11.3-10.71-.67-3h-7.62l-1.16,5.28h10c-.13-.64-.3-1.33-.54-2.3M321.91,244l.06.28,1.06,4.29h6.71l1-4.57Z" transform="translate(-312.53 -225.49)"/><path class="cls-1" d="M333.75,230.31l-1.16,5.28H326.5c.1-.52.21-1.06.34-1.61l.8-3.67Z" transform="translate(-312.53 -225.49)"/><path class="cls-1" d="M342.57,225.49l-2.53,3.2h4l3.28-3.2Zm-7.09,4.82-1.16,5.28h14.14l1.15-5.28Zm-3,13.69-1,4.57H345.6l1-4.57Z" transform="translate(-312.53 -225.49)"/><path class="cls-1" d="M365.45,231.4c-1.26-1.15-2.89-1.61-5.69-1.61-3.81,0-6.37.82-8,2.6a10.41,10.41,0,0,0-2,3.2h17.37a5.77,5.77,0,0,0-1.6-4.19m-17,12.6c.52,3.46,2.79,5,7.15,5,3.46,0,5.79-.82,7.45-2.66a13,13,0,0,0,1.7-2.38Z" transform="translate(-312.53 -225.49)"/><text class="cls-2" transform="translate(1.53 17.04) scale(1 1.14)"><tspan class="cls-3">M</tspan><tspan class="cls-4" x="7.13" y="0">AN</tspan><tspan x="19.33" y="0">H</tspan><tspan class="cls-5" x="25.08" y="0">A</tspan><tspan class="cls-6" x="30.79" y="0">T</tspan><tspan class="cls-7" x="35.72" y="0">T</tspan><tspan class="cls-8" x="40.29" y="0">A</tspan><tspan class="cls-9" x="46.43" y="0">N</tspan></text></svg>